
<svg version="1.0" xmlns="http://www.w3.org/2000/svg"
 width="128.000000pt" height="60.000000pt" viewBox="10 105 590.000000 50.000000"
 preserveAspectRatio="xMidYMid meet">

<g transform="translate(0.000000,309.000000) scale(0.100000,-0.100000)"
fill="#FF3F3F" stroke="none">
<path d="M0 1545 l0 -1545 2950 0 2950 0 0 1545 0 1545 -2950 0 -2950 0 0
-1545z m1149 1217 c3 -5 18 -12 33 -15 53 -14 128 -104 128 -155 0 -17 -53
-107 -82 -139 -11 -12 -17 -27 -13 -33 4 -7 0 -10 -11 -8 -13 2 -19 -3 -18
-14 1 -10 -2 -15 -7 -12 -6 3 -26 -10 -45 -29 -64 -62 -114 -74 -114 -27 0 12
-5 30 -10 41 -7 13 -7 19 0 19 5 0 10 -7 10 -16 0 -24 23 -11 31 18 4 15 24
45 45 67 75 82 93 180 37 202 -15 6 -30 6 -37 0 -6 -5 -27 -12 -46 -16 -19 -4
-42 -13 -50 -20 -8 -7 -25 -16 -38 -20 -18 -5 -21 -12 -17 -28 5 -17 4 -19 -4
-7 -15 22 -51 -15 -52 -54 -1 -29 -1 -30 -8 -6 -7 24 -8 23 -36 -24 -20 -34
-30 -67 -33 -107 -4 -58 13 -133 28 -124 4 3 6 -4 3 -15 -3 -11 12 -55 37
-104 23 -47 39 -90 35 -96 -3 -5 -1 -19 6 -31 9 -18 13 -19 21 -8 8 11 8 10 4
-4 -3 -10 1 -28 9 -40 8 -12 15 -31 15 -42 0 -16 2 -17 10 -5 7 11 10 5 10
-25 0 -23 4 -35 8 -28 4 7 6 -18 5 -55 -5 -88 -12 -132 -22 -132 -5 0 -11 -13
-14 -28 -3 -15 -17 -40 -31 -54 -13 -15 -27 -36 -30 -46 -9 -27 -50 -54 -150
-97 l-89 -38 -113 5 c-78 4 -115 2 -119 -6 -2 -6 -2 -1 1 12 4 15 1 22 -9 22
-21 0 -65 55 -82 102 -16 47 -20 128 -6 128 5 0 12 16 15 36 12 62 104 194
136 194 5 0 7 6 4 14 -4 11 0 13 15 9 14 -3 21 -1 21 8 0 12 2 12 9 0 5 -8 16
-11 25 -8 25 10 20 -29 -11 -93 -42 -88 -52 -121 -57 -190 -3 -40 -2 -53 2
-35 l8 30 5 -27 c4 -15 2 -31 -2 -35 -5 -5 -2 -19 7 -31 29 -42 143 -24 200
33 14 14 29 23 33 21 8 -5 36 43 33 57 -1 4 2 7 7 7 27 0 55 130 31 145 -5 3
-7 12 -3 20 3 9 1 21 -5 28 -6 6 -13 29 -17 50 -4 20 -11 37 -15 37 -5 0 -11
13 -15 29 -9 42 -41 101 -50 93 -5 -4 -5 -2 -1 5 3 6 -4 36 -17 65 -13 29 -30
68 -37 85 -7 18 -15 31 -19 29 -3 -2 -4 16 -2 40 1 24 -1 44 -6 44 -5 0 -8 30
-6 66 2 47 9 74 23 91 11 14 20 36 20 48 0 13 20 45 45 73 25 28 42 52 38 54
-5 3 -3 4 3 2 6 -1 22 7 35 19 25 23 139 83 174 91 30 7 178 -2 184 -12z
m2486 -22 c-3 -5 -10 -10 -16 -10 -5 0 -9 5 -9 10 0 6 7 10 16 10 8 0 12 -4 9
-10z m-41 -15 c20 -9 41 -13 46 -10 6 4 10 1 10 -4 0 -6 -5 -11 -10 -11 -7 0
-7 -8 1 -22 14 -26 6 -183 -11 -203 -5 -7 -8 -34 -5 -61 4 -33 2 -42 -3 -29
-5 11 -7 27 -4 35 3 9 -2 7 -11 -5 -8 -10 -12 -26 -9 -34 3 -9 1 -12 -6 -7 -7
4 -12 2 -12 -3 0 -9 -92 -169 -112 -196 -5 -5 -32 -42 -61 -81 -55 -72 -90
-115 -118 -144 -8 -9 -13 -22 -11 -28 2 -7 -3 -12 -10 -12 -29 0 -128 -132
-128 -171 0 -9 -6 -29 -14 -44 -8 -15 -17 -50 -21 -76 -4 -27 -11 -46 -16 -43
-5 3 -9 -5 -9 -18 -1 -13 -7 -41 -15 -63 -8 -22 -18 -79 -21 -128 -5 -75 -3
-88 11 -93 25 -10 58 28 101 114 25 51 38 91 38 120 1 43 11 56 19 25 2 -10 8
6 12 35 4 29 12 55 16 58 13 8 11 72 -2 76 -6 2 -14 35 -16 73 -5 63 -3 73 18
96 45 50 89 7 89 -87 0 -32 4 -44 14 -44 21 0 31 21 15 31 -8 5 -9 9 -3 9 5 0
15 -5 21 -11 8 -8 19 -6 39 4 41 22 124 113 124 136 0 11 5 23 10 26 14 9 12
49 -2 64 -11 10 -10 11 5 6 11 -5 17 -2 17 6 1 19 41 64 63 72 10 4 15 11 12
17 -3 5 -2 10 3 10 6 0 12 -7 16 -15 3 -8 13 -15 23 -15 10 0 30 -10 45 -23
29 -23 28 -32 -10 -97 -22 -37 -42 -88 -48 -117 -4 -18 -10 -33 -15 -33 -5 0
-9 -13 -9 -30 0 -16 5 -30 10 -30 18 0 70 30 70 40 0 6 5 10 12 10 18 0 58 41
58 59 0 14 -1 14 -10 1 -8 -13 -10 -12 -10 3 0 9 -7 17 -15 17 -8 0 -15 5 -15
10 0 6 6 10 14 10 8 0 17 6 20 13 3 6 3 2 0 -10 -9 -37 27 -28 55 13 21 30 23
39 13 55 -13 20 -8 39 9 39 6 0 7 -9 4 -20 -4 -11 -2 -20 4 -20 6 0 11 6 11
13 0 7 16 39 35 71 19 32 32 63 28 69 -3 6 -1 7 5 3 6 -4 24 6 39 22 55 55 80
64 154 60 60 -3 73 -7 95 -31 32 -35 40 -83 20 -122 -9 -16 -16 -35 -16 -42 0
-13 -76 -91 -126 -130 -19 -14 -31 -29 -28 -35 3 -5 -5 -6 -20 -2 -16 4 -26 2
-26 -5 0 -6 -9 -11 -20 -11 -11 0 -22 -6 -24 -12 -54 -205 -47 -258 26 -207
61 41 79 62 66 71 -9 6 -6 7 8 4 16 -5 28 4 55 40 19 25 33 53 31 61 -2 8 1
13 6 10 12 -8 44 32 36 45 -4 6 -3 8 4 5 14 -9 82 84 83 114 1 17 3 19 6 7 5
-21 14 -14 52 42 43 64 79 85 142 85 52 -1 58 -3 89 -38 30 -35 34 -36 45 -20
7 10 17 34 23 53 6 19 20 60 32 90 12 30 26 69 32 85 6 17 15 35 19 41 5 6 7
24 5 40 -2 16 -1 21 1 10 4 -16 7 -15 19 9 8 15 14 34 14 41 0 8 9 23 20 34
11 11 20 27 20 35 0 33 84 131 135 157 58 31 92 40 111 30 66 -34 75 -36 84
-22 6 10 9 4 9 -20 0 -19 3 -56 7 -83 4 -32 2 -52 -7 -63 -6 -8 -13 -34 -13
-59 -1 -36 -3 -41 -15 -32 -12 10 -13 7 -7 -15 5 -23 3 -28 -13 -28 -11 0 -21
-9 -25 -23 -5 -20 -50 -84 -159 -224 -41 -54 -95 -126 -129 -174 -34 -48 -54
-126 -64 -244 -10 -119 -9 -165 4 -165 13 0 97 109 97 127 0 11 6 17 16 16 9
-2 22 11 32 35 9 20 32 54 52 75 19 21 39 46 44 56 6 10 26 37 46 60 19 24 32
48 28 54 -3 7 -3 9 2 5 4 -4 25 6 45 22 21 17 44 30 51 30 10 0 10 3 1 12 -17
17 -15 83 3 119 9 16 13 35 9 41 -4 7 -3 8 4 4 11 -7 20 -2 57 32 20 18 76 15
91 -5 19 -25 17 -83 -2 -97 -13 -10 -15 -24 -9 -79 4 -37 11 -67 16 -67 5 0 9
-15 9 -32 0 -53 12 -108 21 -102 5 3 7 10 4 15 -3 5 0 6 8 3 13 -5 42 9 138
62 11 7 35 25 52 42 35 32 81 46 97 27 6 -7 6 -23 0 -46 -8 -26 -28 -47 -88
-91 -42 -31 -89 -62 -104 -69 -16 -7 -28 -16 -28 -21 0 -4 -7 -8 -16 -8 -8 0
-13 -4 -10 -9 4 -5 -3 -7 -14 -4 -19 5 -20 0 -20 -101 0 -74 -5 -118 -15 -144
-10 -24 -12 -38 -5 -40 5 -2 10 -8 10 -14 0 -7 -4 -7 -13 1 -10 8 -19 4 -36
-19 -12 -17 -17 -30 -11 -30 6 0 8 -5 5 -10 -4 -6 -10 -8 -15 -5 -5 3 -28 -3
-52 -15 -28 -14 -62 -20 -105 -20 -82 0 -153 40 -177 100 -20 51 -20 52 4 105
11 24 17 50 14 58 -3 8 0 18 7 23 9 5 10 2 6 -10 -9 -22 1 -18 44 17 58 47
127 97 135 97 12 0 33 34 34 55 0 11 -7 33 -15 49 -8 15 -15 36 -15 46 0 46
-11 48 -51 9 -21 -20 -39 -41 -39 -44 0 -4 -12 -16 -26 -27 -14 -11 -23 -27
-20 -34 3 -8 -1 -14 -9 -14 -8 0 -15 -5 -15 -12 0 -6 -3 -9 -6 -5 -5 5 -94
-118 -94 -130 0 -2 -9 -14 -20 -25 -13 -14 -18 -29 -14 -42 3 -14 2 -17 -4 -8
-6 9 -16 3 -38 -24 -41 -51 -65 -74 -99 -95 -39 -24 -70 -24 -105 1 -43 31
-61 79 -62 170 0 44 -1 80 -3 80 -9 0 -95 -89 -95 -98 0 -7 -3 -11 -7 -10 -5
1 -25 -6 -47 -15 -21 -9 -45 -17 -54 -17 -33 0 -80 24 -95 49 -20 35 -38 133
-26 146 5 5 9 14 9 20 0 20 -81 -80 -87 -108 -3 -15 -9 -30 -14 -33 -5 -3 -6
3 -3 13 4 15 3 14 -7 -2 -11 -19 -24 -31 -89 -88 -53 -46 -170 -14 -221 62
-19 28 -24 47 -24 101 l0 66 -27 -37 c-33 -46 -65 -69 -96 -69 -38 0 -98 37
-129 79 l-29 40 -34 -30 c-18 -17 -48 -39 -66 -48 -18 -10 -31 -21 -27 -25 4
-3 -7 -3 -24 0 -45 9 -71 -9 -69 -46 1 -17 -1 -33 -6 -36 -4 -3 -8 -19 -8 -35
0 -16 -7 -46 -15 -67 -9 -20 -14 -48 -11 -62 3 -14 3 -19 -1 -11 -9 21 -35
-48 -27 -72 4 -14 3 -17 -7 -12 -9 6 -10 4 -6 -8 9 -22 15 -44 10 -34 -3 4
-12 7 -21 7 -8 0 -13 -3 -9 -6 3 -4 -10 -21 -29 -39 -38 -36 -120 -70 -129
-54 -4 5 -15 9 -25 9 -24 0 -67 52 -81 98 -20 69 3 321 38 402 4 8 12 33 19
55 33 106 41 145 33 145 -5 0 -9 -3 -9 -8 0 -4 -17 -6 -37 -4 -36 3 -39 1 -58
-39 -11 -24 -41 -65 -67 -92 -27 -26 -48 -54 -48 -62 0 -8 -9 -16 -19 -20 -11
-3 -22 -12 -25 -20 -3 -8 -12 -15 -21 -15 -8 0 -15 -4 -15 -8 0 -5 -17 -16
-38 -25 -42 -18 -132 -23 -132 -7 0 6 -8 10 -17 10 -9 0 -27 10 -40 22 -13 12
-23 16 -23 10 0 -7 -5 -12 -11 -12 -6 0 -8 7 -5 16 4 9 0 24 -7 33 -8 9 -19
29 -24 46 l-10 30 -24 -37 c-13 -20 -33 -42 -44 -47 -11 -5 -14 -10 -7 -10 6
-1 12 -5 12 -10 0 -13 -66 -3 -112 16 -21 9 -50 34 -68 59 -30 43 -56 52 -43
16 3 -9 2 -14 -2 -9 -10 9 -47 -22 -39 -34 3 -5 0 -9 -5 -9 -6 0 -11 -7 -11
-16 0 -8 -4 -13 -9 -10 -5 4 -11 2 -13 -2 -8 -19 -152 -143 -186 -159 -20 -10
-59 -18 -86 -18 -43 0 -52 4 -81 38 -18 21 -35 52 -39 69 -8 39 -6 177 3 248
l7 55 -38 -4 c-28 -2 -44 -11 -58 -31 -11 -15 -20 -32 -20 -37 0 -4 -14 -21
-30 -37 -20 -20 -28 -36 -24 -48 3 -10 0 -18 -6 -18 -6 0 -8 5 -5 10 3 6 2 10
-2 10 -5 0 -25 -20 -46 -44 -35 -42 -68 -67 -109 -82 -10 -3 -18 -10 -18 -15
0 -25 -127 -2 -163 30 -16 13 -20 13 -28 1 -8 -11 -9 -9 -4 7 5 18 3 22 -9 17
-12 -5 -16 0 -16 17 -1 13 -7 35 -15 49 -18 32 -19 117 -1 152 8 15 12 37 9
50 -4 18 -3 20 6 8 9 -13 11 -13 11 2 0 9 3 18 8 20 4 2 16 21 27 42 11 22 29
49 41 61 11 11 19 26 17 32 -2 6 4 10 14 9 10 0 17 4 16 11 -2 6 5 11 15 11
36 -2 71 22 88 59 24 52 67 106 98 123 19 10 23 16 14 22 -8 5 -4 7 12 4 14
-3 42 -8 63 -11 20 -3 37 -10 37 -15 0 -6 6 -10 13 -10 18 0 69 -65 84 -108 9
-25 10 -45 4 -62 -5 -14 -12 -45 -14 -70 -3 -25 -6 -52 -8 -60 -3 -10 5 -16
24 -18 22 -3 27 1 28 20 1 17 3 18 6 6 2 -10 9 -18 14 -18 5 0 12 8 16 18 3 9
17 41 30 70 13 29 20 58 17 64 -4 7 -2 8 4 4 7 -4 12 -2 12 4 0 18 94 106 134
125 43 21 78 14 110 -20 42 -45 59 -146 34 -202 -18 -40 -38 -53 -78 -50 l-35
2 0 57 c0 32 2 53 3 48 9 -25 22 -6 22 30 0 38 -1 39 -17 22 -15 -14 -41 -60
-48 -82 -1 -3 -7 -18 -14 -35 -40 -101 -72 -218 -74 -268 -1 -26 -5 -47 -9
-47 -12 0 -9 -66 4 -95 6 -14 15 -25 20 -25 13 0 99 61 120 85 88 101 92 106
77 116 -12 8 -12 10 1 19 10 6 16 6 19 -1 4 -13 56 44 88 99 16 27 26 60 27
88 0 24 5 43 10 41 12 -4 63 49 69 71 3 12 5 10 6 -7 1 -21 5 -23 41 -19 28 2
39 0 36 -8 -3 -7 4 -14 15 -17 21 -6 27 -51 9 -62 -6 -4 -8 -16 -5 -28 5 -16
4 -18 -3 -8 -11 15 -27 -2 -17 -18 3 -5 1 -12 -5 -16 -17 -11 -52 -86 -46
-101 3 -8 1 -14 -3 -14 -13 0 -21 -27 -15 -45 4 -8 11 -15 17 -15 17 0 78 51
72 61 -3 5 1 6 10 3 20 -8 56 35 49 60 -4 12 -2 16 5 12 15 -10 72 84 65 107
-4 14 -1 17 13 15 12 -2 18 3 17 14 -1 10 3 16 9 15 6 -1 16 7 21 19 8 18 64
50 119 68 9 3 17 11 17 18 0 7 7 26 15 41 8 15 12 35 9 45 -5 14 -4 15 5 2 10
-13 12 -13 21 0 5 8 10 21 10 28 0 6 5 12 10 12 6 0 24 10 40 21 23 17 38 21
74 17 38 -5 54 -14 95 -54 49 -49 49 -50 53 -122 1 -39 0 -72 -3 -72 -4 0 -9
-15 -12 -32 -3 -18 -8 -41 -12 -50 -6 -14 -2 -18 19 -18 39 0 74 27 82 62 3
17 19 56 35 87 32 61 36 76 17 65 -7 -4 -3 4 10 18 35 39 93 160 86 183 -4 14
-3 16 4 7 7 -10 14 -4 28 25 19 37 57 98 96 156 13 18 17 35 12 50 -6 19 -5
20 10 8 9 -7 16 -10 16 -5 0 23 114 124 140 124 4 0 24 -7 44 -15z m-2304 -16
c0 -5 -4 -9 -10 -9 -5 0 -10 7 -10 16 0 8 5 12 10 9 6 -3 10 -10 10 -16z
m3660 -69 c0 -5 -7 -10 -16 -10 -8 0 -12 5 -9 10 3 6 10 10 16 10 5 0 9 -4 9
-10z m-4323 -42 c-3 -8 -6 -5 -6 6 -1 11 2 17 5 13 3 -3 4 -12 1 -19z m4265 0
c-7 -7 -12 -8 -12 -2 0 6 3 14 7 17 3 4 9 5 12 2 2 -3 -1 -11 -7 -17z m-1522
-14 c0 -8 -4 -12 -10 -9 -5 3 -10 10 -10 16 0 5 5 9 10 9 6 0 10 -7 10 -16z
m-2240 -24 c0 -5 -2 -10 -4 -10 -3 0 -8 5 -11 10 -3 6 -1 10 4 10 6 0 11 -4
11 -10z m-490 -66 c0 -14 -3 -14 -15 -4 -8 7 -15 14 -15 16 0 2 7 4 15 4 8 0
15 -7 15 -16z m-33 -46 c-3 -8 -6 -5 -6 6 -1 11 2 17 5 13 3 -3 4 -12 1 -19z
m3083 -18 c0 -5 -5 -10 -11 -10 -5 0 -7 5 -4 10 3 6 8 10 11 10 2 0 4 -4 4
-10z m-1230 -22 c31 -34 27 -87 -10 -121 -17 -16 -27 -33 -24 -38 7 -13 -15
-69 -27 -69 -5 0 -14 -12 -20 -26 -5 -15 -12 -24 -16 -21 -9 10 -43 -12 -43
-28 0 -53 -46 37 -54 105 -3 25 -3 37 0 28 11 -38 33 -17 59 59 15 42 16 55 6
67 -11 13 -10 18 3 31 9 9 16 21 16 26 0 5 20 9 45 9 33 0 50 -6 65 -22z
m1385 -16 c29 -44 26 -64 -17 -104 -31 -30 -37 -51 -10 -41 16 6 16 6 0 -10
-9 -9 -19 -26 -23 -37 -3 -10 -15 -22 -26 -25 -11 -4 -18 -9 -15 -13 8 -8 -45
-42 -65 -42 -20 0 -49 41 -49 69 0 11 8 25 19 30 25 14 45 65 37 98 -6 23 -5
25 8 14 19 -16 22 0 5 31 -7 12 -7 23 -2 27 5 3 12 14 16 24 5 13 18 17 52 17
41 0 47 -3 70 -38z m-2308 -18 c-3 -3 -12 -4 -19 -1 -8 3 -5 6 6 6 11 1 17 -2
13 -5z m-402 -53 c-3 -6 -11 -11 -16 -11 -5 0 -4 6 3 14 14 16 24 13 13 -3z
m300 -21 c3 -5 1 -10 -4 -10 -6 0 -11 5 -11 10 0 6 2 10 4 10 3 0 8 -4 11 -10z
m1562 -42 c-3 -8 -6 -5 -6 6 -1 11 2 17 5 13 3 -3 4 -12 1 -19z m2115 0 c-7
-7 -12 -8 -12 -2 0 14 12 26 19 19 2 -3 -1 -11 -7 -17z m-1931 -11 c-10 -9
-11 -8 -5 6 3 10 9 15 12 12 3 -3 0 -11 -7 -18z m-1521 -1 c0 -3 -4 -8 -10
-11 -5 -3 -10 -1 -10 4 0 6 5 11 10 11 6 0 10 -2 10 -4z m425 -16 c3 -5 1 -10
-4 -10 -6 0 -11 5 -11 10 0 6 2 10 4 10 3 0 8 -4 11 -10z m3005 0 c0 -5 -7
-10 -16 -10 -8 0 -12 5 -9 10 3 6 10 10 16 10 5 0 9 -4 9 -10z m-1450 -4 c0
-2 -7 -9 -15 -16 -12 -10 -15 -10 -15 4 0 9 7 16 15 16 8 0 15 -2 15 -4z
m-1810 -26 c0 -5 -5 -10 -11 -10 -5 0 -7 5 -4 10 3 6 8 10 11 10 2 0 4 -4 4
-10z m1995 0 c3 -5 1 -10 -4 -10 -6 0 -11 5 -11 10 0 6 2 10 4 10 3 0 8 -4 11
-10z m1385 0 c0 -5 -8 -10 -17 -10 -15 0 -16 2 -3 10 19 12 20 12 20 0z
m-4310 -14 c0 -3 -4 -8 -10 -11 -5 -3 -10 -1 -10 4 0 6 5 11 10 11 6 0 10 -2
10 -4z m3435 -16 c3 -5 1 -10 -4 -10 -6 0 -11 5 -11 10 0 6 2 10 4 10 3 0 8
-4 11 -10z m-41 -25 c3 -8 1 -15 -4 -15 -6 0 -10 7 -10 15 0 8 2 15 4 15 2 0
6 -7 10 -15z m-1664 -4 c0 -13 -29 -35 -37 -27 -3 3 -1 6 5 6 7 0 12 7 12 15
0 8 5 15 10 15 6 0 10 -4 10 -9z m487 -23 c-3 -8 -6 -5 -6 6 -1 11 2 17 5 13
3 -3 4 -12 1 -19z m338 -8 c-10 -11 -21 -18 -23 -15 -6 6 31 44 37 39 2 -2 -4
-13 -14 -24z m1065 16 c0 -2 -11 -6 -25 -8 -14 -3 -25 -1 -25 3 0 5 11 9 25 9
14 0 25 -2 25 -4z m517 -28 c-3 -8 -6 -5 -6 6 -1 11 2 17 5 13 3 -3 4 -12 1
-19z m290 -40 c-3 -8 -6 -5 -6 6 -1 11 2 17 5 13 3 -3 4 -12 1 -19z m-1057
-33 c-7 -9 -15 -13 -18 -10 -3 2 1 11 8 20 7 9 15 13 18 10 3 -2 -1 -11 -8
-20z m-3330 5 c0 -5 -4 -10 -10 -10 -5 0 -10 5 -10 10 0 6 5 10 10 10 6 0 10
-4 10 -10z m197 -12 c-3 -8 -6 -5 -6 6 -1 11 2 17 5 13 3 -3 4 -12 1 -19z
m2283 13 c0 -6 -4 -13 -10 -16 -5 -3 -10 1 -10 9 0 9 5 16 10 16 6 0 10 -4 10
-9z m1697 3 c-3 -3 -12 -4 -19 -1 -8 3 -5 6 6 6 11 1 17 -2 13 -5z m-2937 -43
c0 -6 -4 -13 -10 -16 -5 -3 -10 1 -10 9 0 9 5 16 10 16 6 0 10 -4 10 -9z
m-250 -5 c0 -3 -4 -8 -10 -11 -5 -3 -10 -1 -10 4 0 6 5 11 10 11 6 0 10 -2 10
-4z m2290 -46 c-21 -30 -40 -46 -40 -35 0 13 41 65 51 65 6 0 1 -13 -11 -30z
m-840 6 c0 -3 -4 -8 -10 -11 -5 -3 -10 -1 -10 4 0 6 5 11 10 11 6 0 10 -2 10
-4z m460 -6 c0 -5 -2 -10 -4 -10 -3 0 -8 5 -11 10 -3 6 -1 10 4 10 6 0 11 -4
11 -10z m320 -60 c0 -5 -5 -10 -11 -10 -5 0 -7 5 -4 10 3 6 8 10 11 10 2 0 4
-4 4 -10z m1255 -10 c-3 -5 -11 -10 -16 -10 -6 0 -7 5 -4 10 3 6 11 10 16 10
6 0 7 -4 4 -10z m-285 -35 c-7 -9 -15 -13 -17 -11 -7 7 7 26 19 26 6 0 6 -6
-2 -15z m-2179 -18 c-10 -9 -11 -8 -5 6 3 10 9 15 12 12 3 -3 0 -11 -7 -18z
m479 -17 c-32 -28 -38 -25 -10 5 13 14 26 23 28 20 3 -3 -5 -14 -18 -25z
m2157 -2 c-3 -8 -6 -5 -6 6 -1 11 2 17 5 13 3 -3 4 -12 1 -19z m-407 3 c0 -6
-4 -13 -10 -16 -5 -3 -10 1 -10 9 0 9 5 16 10 16 6 0 10 -4 10 -9z m-4643 -73
c-3 -7 -5 -2 -5 12 0 14 2 19 5 13 2 -7 2 -19 0 -25z m1023 28 c0 -3 -4 -8
-10 -11 -5 -3 -10 -1 -10 4 0 6 5 11 10 11 6 0 10 -2 10 -4z m337 -88 c-3 -8
-6 -5 -6 6 -1 11 2 17 5 13 3 -3 4 -12 1 -19z m3123 18 c0 -3 -4 -8 -10 -11
-5 -3 -10 -1 -10 4 0 6 5 11 10 11 6 0 10 -2 10 -4z m-2890 -26 c0 -5 -4 -10
-10 -10 -5 0 -10 5 -10 10 0 6 5 10 10 10 6 0 10 -4 10 -10z m327 -22 c-3 -7
-5 -2 -5 12 0 14 2 19 5 13 2 -7 2 -19 0 -25z m1589 6 c-9 -9 -20 -14 -23 -10
-4 3 2 13 13 20 25 18 31 12 10 -10z m-2186 -19 c0 -5 -5 -3 -10 5 -5 8 -10
20 -10 25 0 6 5 3 10 -5 5 -8 10 -19 10 -25z m3176 8 c-10 -10 -19 5 -10 18 6
11 8 11 12 0 2 -7 1 -15 -2 -18z m-1052 1 c3 -8 2 -12 -4 -9 -6 3 -10 10 -10
16 0 14 7 11 14 -7z m-1664 -14 c8 -5 11 -10 5 -10 -5 0 -17 5 -25 10 -8 5
-10 10 -5 10 6 0 17 -5 25 -10z m1023 -10 c-3 -11 -7 -20 -9 -20 -2 0 -4 9 -4
20 0 11 4 20 9 20 5 0 7 -9 4 -20z m-3026 -12 c-3 -8 -6 -5 -6 6 -1 11 2 17 5
13 3 -3 4 -12 1 -19z m663 7 c0 -8 -4 -15 -10 -15 -5 0 -7 7 -4 15 4 8 8 15
10 15 2 0 4 -7 4 -15z m75 -5 c3 -5 1 -10 -4 -10 -6 0 -11 5 -11 10 0 6 2 10
4 10 3 0 8 -4 11 -10z m1005 0 c0 -5 -8 -10 -17 -10 -15 0 -16 2 -3 10 19 12
20 12 20 0z m-1743 -72 c-3 -7 -5 -2 -5 12 0 14 2 19 5 13 2 -7 2 -19 0 -25z
m3983 -8 c0 -5 -2 -10 -4 -10 -3 0 -8 5 -11 10 -3 6 -1 10 4 10 6 0 11 -4 11
-10z m-2590 -35 c7 -9 8 -15 2 -15 -5 0 -12 7 -16 15 -3 8 -4 15 -2 15 2 0 9
-7 16 -15z m2387 9 c-3 -3 -12 -4 -19 -1 -8 3 -5 6 6 6 11 1 17 -2 13 -5z
m1290 -26 c-3 -8 -6 -5 -6 6 -1 11 2 17 5 13 3 -3 4 -12 1 -19z m-4567 -28
c-24 -15 -37 -11 -16 5 11 8 22 12 25 9 3 -3 -1 -9 -9 -14z m3817 -46 c-3 -3
-12 -4 -19 -1 -8 3 -5 6 6 6 11 1 17 -2 13 -5z m333 -14 c0 -5 -4 -10 -10 -10
-5 0 -10 5 -10 10 0 6 5 10 10 10 6 0 10 -4 10 -10z m-225 -10 c3 -5 1 -10 -4
-10 -6 0 -11 5 -11 10 0 6 2 10 4 10 3 0 8 -4 11 -10z m-1765 -220 c0 -5 -2
-10 -4 -10 -3 0 -8 5 -11 10 -3 6 -1 10 4 10 6 0 11 -4 11 -10z m137 -57 c-3
-10 -5 -4 -5 12 0 17 2 24 5 18 2 -7 2 -21 0 -30z m-1033 12 c-4 -8 -8 -15
-10 -15 -2 0 -4 7 -4 15 0 8 4 15 10 15 5 0 7 -7 4 -15z m123 -17 c-3 -7 -5
-2 -5 12 0 14 2 19 5 13 2 -7 2 -19 0 -25z m663 22 c0 -5 -2 -10 -4 -10 -3 0
-8 5 -11 10 -3 6 -1 10 4 10 6 0 11 -4 11 -10z m655 -30 c-3 -5 -11 -10 -16
-10 -6 0 -7 5 -4 10 3 6 11 10 16 10 6 0 7 -4 4 -10z m702 4 c-3 -3 -12 -4
-19 -1 -8 3 -5 6 6 6 11 1 17 -2 13 -5z m-2657 -14 c0 -5 -5 -10 -11 -10 -5 0
-7 5 -4 10 3 6 8 10 11 10 2 0 4 -4 4 -10z m1497 -12 c-3 -8 -6 -5 -6 6 -1 11
2 17 5 13 3 -3 4 -12 1 -19z m1660 -15 c-3 -10 -5 -4 -5 12 0 17 2 24 5 18 2
-7 2 -21 0 -30z m-2877 12 c0 -8 8 -15 18 -15 30 -1 49 -24 59 -72 8 -36 7
-45 -2 -42 -7 3 -15 -2 -18 -10 -4 -9 -2 -16 3 -16 6 0 10 -5 10 -11 0 -8 -4
-8 -12 -1 -7 6 -30 10 -50 9 -37 -1 -38 -2 -38 -39 0 -39 -21 -61 -40 -42 -5
5 -10 59 -12 121 -2 61 0 107 3 101 4 -7 9 -6 13 1 4 7 18 8 34 4 24 -6 26 -5
13 10 -12 15 -11 17 3 17 9 0 16 -7 16 -15z m670 5 c12 -8 11 -10 -7 -10 -13
0 -23 5 -23 10 0 13 11 13 30 0z m-1071 -28 c70 -33 81 -143 19 -195 -29 -25
-39 -28 -81 -24 -55 5 -91 32 -108 84 -9 28 -7 41 12 82 15 35 30 52 48 57
l26 7 -30 8 c-19 5 -11 6 25 2 30 -3 70 -12 89 -21z m196 18 c-3 -5 2 -10 12
-10 29 0 52 -21 62 -57 8 -26 6 -37 -9 -56 -11 -14 -18 -26 -15 -28 2 -3 -14
-3 -35 -1 -38 4 -39 4 -42 -34 -3 -37 -29 -66 -45 -51 -10 10 -14 127 -7 189
6 48 13 54 62 57 13 0 20 -3 17 -9z m1686 -10 c11 0 29 -6 40 -12 17 -11 23
-10 26 0 3 6 9 9 15 6 6 -4 5 -9 -3 -15 -11 -6 -10 -12 4 -27 11 -12 17 -35
17 -65 0 -37 -6 -53 -29 -79 -24 -27 -36 -32 -90 -36 l-61 -4 0 115 0 115 28
10 c15 5 29 5 30 1 2 -5 12 -9 23 -9z m46 14 c-3 -3 -12 -4 -19 -1 -8 3 -5 6
6 6 11 1 17 -2 13 -5z m606 -1 c-7 -2 -19 -2 -25 0 -7 3 -2 5 12 5 14 0 19 -2
13 -5z m410 0 c-7 -2 -19 -2 -25 0 -7 3 -2 5 12 5 14 0 19 -2 13 -5z m197 -3
c0 -5 -2 -10 -4 -10 -3 0 -8 5 -11 10 -3 6 -1 10 4 10 6 0 11 -4 11 -10z m251
-58 c69 -180 69 -182 39 -182 -13 0 -18 -5 -14 -15 4 -8 1 -15 -6 -15 -8 0
-10 9 -6 25 10 39 -13 65 -56 65 -39 0 -55 -21 -43 -59 3 -10 -1 -24 -10 -31
-18 -15 -20 1 -3 18 9 9 6 12 -13 12 -24 0 -25 3 -25 53 0 28 2 44 4 35 4 -20
22 -24 22 -5 0 6 6 23 13 37 7 14 22 48 32 77 23 63 37 60 66 -15z m-3865 31
c16 -22 13 -49 -6 -45 -7 2 -17 -3 -22 -10 -6 -9 -7 -5 -3 10 6 20 3 22 -29
22 -19 0 -38 -5 -41 -11 -9 -14 24 -38 53 -39 12 0 34 -7 47 -16 34 -22 35
-86 3 -108 -48 -34 -148 -10 -148 35 0 23 25 25 46 4 9 -8 23 -15 32 -14 13 0
11 3 -5 11 -13 6 -23 14 -23 18 0 4 10 12 23 18 l22 11 -24 0 c-36 1 -71 39
-71 76 0 27 6 36 33 49 39 20 93 14 113 -11z m233 13 c8 -9 11 -50 9 -117 -3
-99 -4 -104 -25 -107 -21 -3 -23 1 -23 45 0 48 0 48 -35 50 l-35 3 0 -51 c0
-47 -2 -50 -22 -47 -22 3 -23 7 -26 116 l-3 112 26 0 c23 0 25 -4 25 -45 0
-45 0 -45 35 -45 35 0 35 0 35 43 0 57 15 73 39 43z m816 -28 c6 -45 5 -103
-2 -175 l-4 -42 -22 19 c-20 18 -22 28 -21 120 0 77 4 104 15 111 23 15 28 11
34 -33z m103 23 c12 -10 22 -22 22 -27 0 -5 14 -28 30 -52 l29 -44 3 69 c2 52
6 68 18 68 11 0 17 -16 21 -60 7 -75 17 -105 36 -105 8 0 11 -5 7 -12 -5 -8
-13 -4 -26 11 l-18 23 0 -45 c0 -57 -17 -64 -47 -20 -13 19 -23 36 -23 39 0 3
-5 10 -10 17 -6 7 -17 21 -25 32 -13 18 -14 16 -13 -25 2 -80 -1 -90 -22 -90
-19 0 -20 7 -20 120 0 66 4 120 8 120 5 0 19 -8 30 -19z m385 -21 c21 -23 27
-37 23 -55 -3 -13 -2 -26 3 -30 6 -3 6 -18 -1 -38 -5 -17 -10 -37 -11 -44 0
-7 -5 -9 -10 -6 -5 3 -12 0 -16 -6 -8 -13 -134 -36 -154 -28 -6 3 -2 6 11 6
22 1 22 3 -12 35 -31 29 -36 40 -36 78 0 109 131 165 203 88z m283 13 c4 -15
13 -38 20 -52 8 -14 14 -34 14 -43 0 -10 5 -18 11 -18 7 0 9 10 7 25 -3 15 -1
25 6 25 6 0 18 19 26 43 27 76 48 52 67 -75 3 -21 8 -38 12 -38 3 0 7 -18 7
-40 1 -32 -2 -40 -16 -40 -19 0 -40 45 -40 86 0 13 -4 24 -10 24 -5 0 -10 -6
-10 -12 0 -7 -8 -32 -17 -56 -23 -55 -42 -51 -66 13 -24 65 -35 75 -35 34 0
-45 -18 -89 -36 -89 -18 0 -26 63 -10 85 7 9 15 37 19 63 10 75 16 92 31 92 7
0 17 -12 20 -27z m333 -21 c9 -24 20 -40 23 -37 3 3 9 -11 13 -32 3 -21 13
-52 22 -70 26 -55 -14 -77 -42 -23 -13 24 -22 30 -50 30 -27 0 -37 -5 -47 -27
-16 -34 -48 -43 -48 -14 0 11 5 23 10 26 6 4 8 11 4 16 -3 5 -9 7 -14 4 -4 -3
-10 1 -13 9 -4 11 1 13 19 10 15 -3 24 0 24 8 1 7 9 31 20 53 11 22 19 47 20
56 0 18 21 40 34 36 5 -2 16 -22 25 -45z m507 35 c4 -4 8 -15 9 -25 1 -14 -6
-17 -52 -14 -51 4 -53 3 -53 -22 0 -24 3 -26 45 -26 32 0 47 -5 52 -15 8 -23
-3 -29 -52 -26 -42 2 -45 0 -45 -24 0 -23 4 -25 44 -25 44 0 74 -19 61 -40 -3
-5 -37 -10 -76 -10 l-69 0 0 113 c0 63 2 116 5 119 8 8 123 3 131 -5z m324 -2
c35 -18 41 -55 10 -55 -11 0 -20 5 -20 11 0 16 -73 6 -78 -11 -3 -8 -1 -12 3
-8 4 4 14 1 22 -7 8 -8 23 -15 34 -15 11 0 31 -7 44 -16 29 -19 33 -62 9 -102
-14 -25 -20 -27 -67 -24 -55 4 -87 23 -87 53 0 10 9 23 20 29 17 9 20 8 20 -9
0 -10 7 -21 15 -25 9 -3 15 0 15 10 0 8 5 12 10 9 6 -4 8 -11 5 -16 -4 -5 -2
-9 4 -9 17 0 41 12 41 20 0 17 -32 40 -55 40 -13 0 -36 10 -51 23 -22 19 -25
28 -19 55 12 57 67 77 125 47z m254 1 c58 -24 75 -48 70 -98 -9 -76 -14 -87
-47 -105 -35 -18 -119 -35 -111 -21 3 4 0 8 -6 8 -30 0 -70 66 -70 114 0 38
28 83 63 100 40 19 59 20 101 2z m286 -3 c49 -34 66 -73 32 -73 -11 0 -27 9
-37 20 -23 26 -66 26 -96 0 -20 -19 -22 -24 -10 -42 11 -18 11 -20 -3 -15 -20
8 -20 2 1 -34 15 -25 24 -29 59 -29 32 0 45 5 56 22 15 23 48 20 48 -4 -1 -33
-39 -59 -92 -64 -57 -5 -76 5 -111 58 -18 29 -24 98 -7 98 6 0 10 7 10 15 0
20 69 65 100 65 14 0 37 -8 50 -17z m152 1 c2 -9 2 -63 0 -120 -3 -95 -5 -104
-23 -104 -18 0 -19 8 -19 113 0 63 3 117 7 120 12 13 31 7 35 -9z m346 -82 l3
-92 34 0 c33 0 46 -13 37 -37 -7 -20 -108 -17 -116 3 -10 25 -7 170 4 199 20
52 35 23 38 -73z m-2951 56 c-3 -8 -6 -5 -6 6 -1 11 2 17 5 13 3 -3 4 -12 1
-19z m2710 0 c-3 -8 -6 -5 -6 6 -1 11 2 17 5 13 3 -3 4 -12 1 -19z m-1567 -8
c0 -5 -7 -10 -16 -10 -8 0 -12 5 -9 10 3 6 10 10 16 10 5 0 9 -4 9 -10z
m-1002 -25 c-3 -3 -9 2 -12 12 -6 14 -5 15 5 6 7 -7 10 -15 7 -18z m1292 10
c0 -8 -4 -15 -10 -15 -5 0 -10 7 -10 15 0 8 5 15 10 15 6 0 10 -7 10 -15z
m860 11 c0 -3 -4 -8 -10 -11 -5 -3 -10 -1 -10 4 0 6 5 11 10 11 6 0 10 -2 10
-4z m-3410 -27 c0 -5 -4 -9 -10 -9 -5 0 -10 7 -10 16 0 8 5 12 10 9 6 -3 10
-10 10 -16z m1130 -26 c0 -7 -4 -13 -10 -13 -5 0 -10 12 -10 28 0 21 2 24 10
12 5 -8 10 -21 10 -27z m967 -15 c-3 -8 -6 -5 -6 6 -1 11 2 17 5 13 3 -3 4
-12 1 -19z m-1287 -18 c0 -5 -5 -10 -11 -10 -5 0 -7 5 -4 10 3 6 8 10 11 10 2
0 4 -4 4 -10z m3164 -5 c3 -8 1 -15 -3 -15 -5 0 -11 7 -15 15 -3 8 -1 15 3 15
5 0 11 -7 15 -15z m-2947 -27 c-3 -8 -6 -5 -6 6 -1 11 2 17 5 13 3 -3 4 -12 1
-19z m2352 -20 c-9 -17 -14 -19 -17 -8 -3 7 0 16 7 18 6 2 11 11 12 20 0 10 3
12 5 5 3 -7 0 -22 -7 -35z m281 22 c0 -5 -2 -10 -4 -10 -3 0 -8 5 -11 10 -3 6
-1 10 4 10 6 0 11 -4 11 -10z m-1350 -10 c0 -5 -5 -10 -11 -10 -5 0 -7 5 -4
10 3 6 8 10 11 10 2 0 4 -4 4 -10z m-1374 -27 c-10 -10 -19 5 -10 18 6 11 8
11 12 0 2 -7 1 -15 -2 -18z m1934 17 c0 -5 -2 -10 -4 -10 -3 0 -8 5 -11 10 -3
6 -1 10 4 10 6 0 11 -4 11 -10z m1307 -32 c-3 -8 -6 -5 -6 6 -1 11 2 17 5 13
3 -3 4 -12 1 -19z m-2947 8 c0 -3 -4 -8 -10 -11 -5 -3 -10 -1 -10 4 0 6 5 11
10 11 6 0 10 -2 10 -4z m647 -38 c-3 -7 -5 -2 -5 12 0 14 2 19 5 13 2 -7 2
-19 0 -25z m-1948 -10 c0 -16 -2 -18 -6 -8 -3 8 -11 18 -17 22 -7 5 -4 8 7 8
11 0 17 -7 16 -22z m1041 12 c0 -5 -2 -10 -4 -10 -3 0 -8 5 -11 10 -3 6 -1 10
4 10 6 0 11 -4 11 -10z m1497 4 c-3 -3 -12 -4 -19 -1 -8 3 -5 6 6 6 11 1 17
-2 13 -5z m513 -16 c0 -4 -9 -8 -20 -8 -11 0 -20 4 -20 9 0 6 9 9 20 8 11 -1
20 -5 20 -9z m125 2 c3 -5 1 -10 -4 -10 -6 0 -11 5 -11 10 0 6 2 10 4 10 3 0
8 -4 11 -10z m335 6 c0 -11 -19 -15 -25 -6 -3 5 1 10 9 10 9 0 16 -2 16 -4z"/>
<path d="M3522 2583 c-28 -42 -72 -121 -72 -130 0 -4 5 -1 11 7 9 12 10 12 5
-3 -3 -10 -6 -23 -6 -29 0 -6 -6 -6 -15 2 -9 8 -15 8 -15 2 0 -6 -5 -23 -12
-39 -6 -15 -10 -34 -9 -42 1 -7 -2 -10 -8 -7 -9 6 -43 -59 -91 -174 -13 -30
-28 -61 -33 -67 -5 -7 -7 -20 -3 -28 3 -8 1 -15 -3 -15 -5 0 -12 -8 -15 -17
-6 -15 -4 -15 14 2 11 10 20 24 20 32 0 7 4 13 9 13 5 0 7 10 4 23 -3 15 -2
18 5 9 6 -10 15 -4 33 22 13 20 27 36 31 36 3 0 4 9 1 20 -4 15 -2 19 10 14
10 -3 17 2 21 14 4 11 15 30 26 42 11 13 20 32 20 42 0 12 4 16 11 12 8 -4 9
4 4 27 -4 21 -3 29 3 21 7 -10 11 -10 21 2 7 9 11 21 9 28 -3 7 3 20 12 30 21
23 54 132 41 136 -5 2 -7 10 -4 18 5 13 7 13 14 2 7 -10 9 -9 9 5 0 26 -26 20
-48 -10z m-118 -327 c-3 -14 -10 -24 -14 -21 -5 3 -3 16 3 29 15 31 20 27 11
-8z m-74 -106 c0 -5 -5 -10 -11 -10 -5 0 -7 5 -4 10 3 6 8 10 11 10 2 0 4 -4
4 -10z"/>
<path d="M5058 2552 c-10 -2 -18 -12 -18 -22 0 -12 -5 -17 -13 -14 -13 5 -67
-87 -67 -114 0 -6 -4 -12 -10 -12 -5 0 -10 -6 -10 -12 0 -7 -7 -26 -15 -42 -9
-16 -13 -38 -10 -50 4 -14 3 -17 -3 -8 -6 9 -14 -4 -27 -42 -15 -45 -16 -57
-6 -70 10 -12 16 -13 25 -3 7 7 15 17 17 22 2 6 29 48 60 95 69 105 101 184
97 236 -2 31 -7 39 -20 36z m-1 -74 c-3 -8 -6 -5 -6 6 -1 11 2 17 5 13 3 -3 4
-12 1 -19z"/>
<path d="M1506 2211 l-29 -19 42 1 c22 1 41 3 41 4 0 8 -14 33 -19 33 -3 0
-19 -9 -35 -19z"/>
<path d="M2859 2213 c-35 -21 -63 -75 -54 -104 4 -17 3 -20 -3 -10 -14 20 -31
-16 -39 -81 -5 -42 -3 -53 12 -64 24 -17 71 -18 82 -1 19 29 41 122 37 155 -3
29 -2 33 5 17 8 -15 10 -5 8 39 -1 33 -6 61 -12 62 -5 2 -22 -4 -36 -13z m-2
-205 c-3 -8 -6 -5 -6 6 -1 11 2 17 5 13 3 -3 4 -12 1 -19z"/>
<path d="M1493 2183 c-49 -10 -109 -206 -70 -230 22 -14 57 -14 57 -1 0 10 2
10 9 -1 6 -9 11 -10 15 -2 12 19 35 104 30 112 -2 4 0 9 5 11 5 1 11 28 13 58
3 59 -3 65 -59 53z m-43 -118 c0 -8 -4 -15 -10 -15 -5 0 -7 7 -4 15 4 8 8 15
10 15 2 0 4 -7 4 -15z m51 -65 c5 0 9 -5 9 -11 0 -8 -5 -8 -15 1 -8 7 -14 20
-14 29 1 13 2 13 6 -1 2 -10 9 -18 14 -18z"/>
<path d="M4845 2124 c-7 -40 0 -58 12 -28 3 10 11 22 16 25 11 8 2 39 -12 39
-5 0 -12 -16 -16 -36z"/>
<path d="M4135 2127 c-21 -24 -73 -114 -80 -138 -4 -13 -12 -30 -18 -37 -5 -7
-7 -15 -4 -18 3 -4 27 14 54 39 43 41 46 46 33 63 -14 17 -14 18 2 5 16 -12
19 -10 28 14 12 31 13 85 3 85 -5 -1 -13 -6 -18 -13z m5 -41 c0 -3 -4 -8 -10
-11 -5 -3 -10 -1 -10 4 0 6 5 11 10 11 6 0 10 -2 10 -4z"/>
<path d="M4506 1948 c-18 -29 -37 -64 -41 -78 -4 -14 -13 -38 -20 -55 -40 -91
-59 -195 -35 -195 6 0 22 11 35 24 13 13 26 22 28 20 2 -2 31 25 65 60 65 70
80 112 69 197 -5 35 -37 78 -60 79 -4 0 -22 -24 -41 -52z m64 12 c0 -5 -2 -10
-4 -10 -3 0 -8 5 -11 10 -3 6 -1 10 4 10 6 0 11 -4 11 -10z m-79 -113 c-8 -8
-11 -7 -11 4 0 20 13 34 18 19 3 -7 -1 -17 -7 -23z m-41 -107 c0 -5 -4 -10
-10 -10 -5 0 -10 5 -10 10 0 6 5 10 10 10 6 0 10 -4 10 -10z"/>
<path d="M1300 1934 c-52 -115 -72 -171 -77 -216 -5 -38 -5 -38 31 -38 41 0
95 29 89 48 -3 7 1 10 10 6 17 -6 50 34 40 49 -4 6 0 8 10 4 11 -4 18 2 25 21
6 15 17 36 25 47 14 19 12 21 -41 42 -42 18 -58 20 -63 11 -4 -7 -11 -9 -16
-5 -4 5 -2 12 5 16 10 6 10 13 -2 35 l-14 28 -22 -48z"/>
<path d="M2676 1961 c4 -16 3 -21 -5 -17 -11 7 -58 -86 -68 -136 -3 -16 -9
-28 -13 -28 -4 0 -10 -16 -12 -35 -2 -19 -1 -35 4 -35 4 0 5 -7 2 -15 -5 -11
1 -15 25 -15 50 0 152 74 136 99 -3 6 0 9 8 5 8 -3 25 14 45 46 23 36 27 50
17 50 -8 0 -15 -4 -15 -10 0 -5 -5 -10 -11 -10 -6 0 -9 7 -5 15 4 10 -1 15
-14 15 -11 0 -20 4 -20 8 0 5 -12 15 -26 22 -14 8 -32 26 -40 40 -14 24 -15
24 -8 1z m-16 -109 c0 -7 -4 -10 -10 -7 -5 3 -10 16 -10 28 0 18 2 19 10 7 5
-8 10 -21 10 -28z m111 -35 c-10 -9 -11 -8 -5 6 3 10 9 15 12 12 3 -3 0 -11
-7 -18z"/>
<path d="M5210 1615 c0 -8 2 -15 4 -15 2 0 6 7 10 15 3 8 1 15 -4 15 -6 0 -10
-7 -10 -15z"/>
<path d="M5183 1603 c-7 -2 -9 -12 -6 -21 4 -14 3 -14 -5 -3 -14 20 -66 -19
-103 -77 -34 -53 -35 -58 -12 -66 26 -10 112 24 105 42 -3 9 -1 13 5 9 14 -9
60 83 46 92 -6 3 -12 11 -14 17 -2 6 -9 9 -16 7z m-96 -149 c-3 -3 -12 -4 -19
-1 -8 3 -5 6 6 6 11 1 17 -2 13 -5z"/>
<path d="M1820 966 c0 -30 2 -33 25 -29 53 11 57 63 4 63 -26 0 -29 -3 -29
-34z"/>
<path d="M1338 975 c-10 -13 -18 -36 -18 -51 0 -31 45 -78 67 -70 8 3 21 6 28
6 44 0 61 84 25 120 -28 28 -80 26 -102 -5z m82 -5 c0 -5 -7 -10 -15 -10 -8 0
-15 5 -15 10 0 6 7 10 15 10 8 0 15 -4 15 -10z m30 -20 c0 -5 -4 -10 -10 -10
-5 0 -10 5 -10 10 0 6 5 10 10 10 6 0 10 -4 10 -10z m-50 -14 c0 -3 -4 -8 -10
-11 -5 -3 -10 -1 -10 4 0 6 5 11 10 11 6 0 10 -2 10 -4z m31 -36 c6 0 7 -4 4
-10 -11 -18 -21 -10 -22 18 0 15 1 19 4 10 2 -10 9 -18 14 -18z"/>
<path d="M1614 968 c3 -37 21 -46 50 -25 28 21 13 57 -24 57 -26 0 -28 -3 -26
-32z"/>
<path d="M3300 930 l0 -70 30 0 c40 0 73 50 59 88 -12 32 -37 51 -66 52 -22 0
-23 -4 -23 -70z"/>
<path d="M4801 953 c-1 -6 -4 -18 -7 -27 -4 -11 -1 -16 10 -16 18 0 19 6 6 35
-5 11 -9 15 -9 8z"/>
<path d="M920 890 c-13 -9 -13 -11 0 -20 21 -14 26 -12 27 10 2 22 -5 25 -27
10z"/>
<path d="M2378 979 c-24 -25 -23 -81 0 -102 27 -25 112 -21 112 5 0 6 -7 8
-15 4 -20 -7 -67 14 -62 28 2 6 27 12 56 14 44 3 51 5 41 17 -7 8 -17 12 -23
8 -6 -3 -7 -1 -3 6 23 36 -74 55 -106 20z"/>
<path d="M3090 950 c0 -5 5 -10 10 -10 6 0 10 5 10 10 0 6 -4 10 -10 10 -5 0
-10 -4 -10 -10z"/>
<path d="M3080 920 c0 -5 9 -10 20 -10 11 0 20 5 20 10 0 6 -9 10 -20 10 -11
0 -20 -4 -20 -10z"/>
<path d="M4113 977 c-27 -27 -29 -64 -5 -92 20 -24 52 -39 52 -24 0 5 10 7 23
4 32 -8 52 18 52 66 0 66 -74 93 -122 46z m67 3 c0 -5 -7 -10 -16 -10 -8 0
-12 5 -9 10 3 6 10 10 16 10 5 0 9 -4 9 -10z"/>
</g>
</svg>
